<svg id="Layer_1" data-name="Layer 1" xmlns="http://www.w3.org/2000/svg" viewBox="0 0 75 75"><defs><style>.cls-1{fill:#83b0b5;}.cls-2{fill:#5e969c;}.cls-3{fill:#54888e;}.cls-4{fill:#fff;}</style></defs><title>курс</title><rect class="cls-1" width="75" height="75"/><polygon class="cls-2" points="31.81 14.85 0 48 0 75 44 75 58.41 59.75 46.78 40.63 35.06 37.84 31.81 14.85"/><polygon class="cls-3" points="14.59 59.75 0 75 0 75 31.8 75 45.66 59.68 31.25 47.23 14.59 59.75"/><polygon class="cls-4" points="58.5 59.5 14.68 59.5 58.5 15.68 58.5 59.5"/><polyline class="cls-2" points="35.06 51.11 49.96 36.2 49.96 51.11"/><rect class="cls-2" x="52" y="54.5" width="2" height="5"/><rect class="cls-2" x="46" y="54.5" width="2" height="5"/><rect class="cls-2" x="40.5" y="54.5" width="2" height="5"/><rect class="cls-4" x="26.5" y="25" width="11" height="34.5"/><rect class="cls-2" x="33" y="25" width="4.5" height="34.5"/><polygon class="cls-4" points="37.5 25 34.2 19.44 29.41 19.44 26.5 25 37.5 25"/><polygon class="cls-4" points="31.79 14.85 29.41 19.44 34.2 19.44 31.79 14.85"/><polygon class="cls-3" points="33 25 31.79 14.85 37.5 25 33 25"/></svg>