<svg id="Layer_1" data-name="Layer 1" xmlns="http://www.w3.org/2000/svg" viewBox="0 0 75 75"><defs><style>.cls-1{fill:#c27b76;}.cls-2{fill:#9b625e;}.cls-3{fill:#8d5955;}.cls-4{fill:#fff;}</style></defs><title>личный кабинет</title><rect class="cls-1" width="75" height="75"/><polygon class="cls-2" points="19.34 18.83 0 38.47 0 75 37.5 75 55.66 56.17 46.78 40.63 44.73 31.69 19.34 18.83"/><polygon class="cls-3" points="12.29 44.05 0 56.64 0 75 29.3 75 41.23 63.32 31.25 47.23 12.29 44.05"/><path class="cls-4" d="M56.69,36.7a19.45,19.45,0,0,0-.22-2.16l6.24-3.59a25.85,25.85,0,0,0-1.85-5l-7.07,1.36A19.24,19.24,0,0,0,51.1,24L54,17.38a26,26,0,0,0-4.42-2.95l-4.91,5.25a19,19,0,0,0-4.16-1.18l-1.49-7.05a26.08,26.08,0,0,0-5.29.22l-.89,7.15a19.07,19.07,0,0,0-4,1.52l-5.34-4.83a26.26,26.26,0,0,0-4.16,3.31l3.47,6.3a19.24,19.24,0,0,0-2.39,3.59L13.25,28a25.82,25.82,0,0,0-1.43,5.11l6.52,3.06a18,18,0,0,0,.18,4.32l-6.24,3.59a25.9,25.9,0,0,0,1.85,5l7.07-1.36A19.31,19.31,0,0,0,23.89,51L21,57.62a26.23,26.23,0,0,0,4.42,2.95l4.91-5.26a18.88,18.88,0,0,0,4.16,1.18l1.48,7.05a26.42,26.42,0,0,0,5.3-.22l.89-7.15a19,19,0,0,0,4-1.52l5.34,4.83a26.25,26.25,0,0,0,4.16-3.31l-3.47-6.31a19.23,19.23,0,0,0,2.4-3.59l7.16.77a25.8,25.8,0,0,0,1.43-5.11l-6.52-3.06A19.2,19.2,0,0,0,56.69,36.7Z"/><path class="cls-2" d="M49,49.94a4.64,4.64,0,0,1,0-.64c.25-2.57-1.27-4.22-3.38-5.58a18.85,18.85,0,0,0-3.69-1.78c-.94-.35-1.19-.8-1.16-1.83a3,3,0,0,1,.78-1.78,11.47,11.47,0,0,0,2.64-8.76c-.73-5.85-6.91-7.25-10.56-4.83-2.33,1.54-3.07,3.9-2.95,6.55a12.06,12.06,0,0,0,3,7.45,2,2,0,0,1-.55,3.06c-.33.16-.67.27-1,.42a13.82,13.82,0,0,0-4.68,3.09A4.52,4.52,0,0,0,26,48.78c0,.36,0,.73,0,1.22Z"/></svg>