<svg id="Layer_1" data-name="Layer 1" xmlns="http://www.w3.org/2000/svg" viewBox="0 0 75 75"><defs><style>.cls-1{fill:#909090;}.cls-2{fill:#7e7e7e;}.cls-3{fill:#747474;}.cls-4{fill:#fff;}</style></defs><title>сайт ОТ</title><rect class="cls-1" width="75" height="75"/><polygon class="cls-2" points="13.13 13.13 0 26.27 0 75 49.43 75 61.88 61.88 13.13 13.13"/><polygon class="cls-3" points="15.75 30.57 0 47 0 75 29 75 44.5 59.2 15.75 30.57"/><rect class="cls-4" x="13.13" y="13.12" width="48.75" height="48.75"/><polygon class="cls-3" points="36.48 26.39 24.62 26.39 24.62 32.1 30.46 32.1 30.46 49.48 36.48 49.48 36.48 26.39"/><rect class="cls-3" x="39.1" y="26.39" width="5.75" height="5.75"/><path class="cls-3" d="M37.5,15.8A21.67,21.67,0,0,0,18.88,26.39h5.68a17.14,17.14,0,1,1-3.24,5.71H16.5a21.69,21.69,0,1,0,21-16.3Z"/></svg>