<svg id="Layer_1" data-name="Layer 1" xmlns="http://www.w3.org/2000/svg" viewBox="0 0 75 75"><defs><style>.cls-1{fill:#c0a28a;}.cls-2{fill:#a98060;}.cls-3{fill:#fff;}.cls-4{fill:#9b7354;}</style></defs><title>разделы</title><rect class="cls-1" width="75" height="75"/><polygon class="cls-2" points="14.75 15.5 0 29 0 75 37.87 75 54 59.34 48.44 27.09 50 24.89 50 15.5 14.75 15.5"/><rect class="cls-3" x="57" y="47" width="6.5" height="9.5"/><polygon class="cls-4" points="32.47 25.71 0 57.92 0 75 16.93 75 48.52 44.1 32.47 25.71"/><rect class="cls-3" x="57" y="34.5" width="6.5" height="9.5"/><polygon class="cls-3" points="63.5 19 54 19 54 15.5 14.5 15.5 14.5 59.5 54 59.5 54 31.5 63.5 31.5 63.5 19"/><path class="cls-2" d="M34.41,22.23a29.63,29.63,0,0,1,8.47,1.24,10.59,10.59,0,0,1,3.84,2,3.3,3.3,0,0,1,1.12,1.68,2.44,2.44,0,0,1-.65,2.23,7.14,7.14,0,0,1-2.52,1.77,20.55,20.55,0,0,1-5.88,1.59,32.11,32.11,0,0,1-7.27.17,22.2,22.2,0,0,1-7.36-1.76,7.43,7.43,0,0,1-2.49-1.73,2.46,2.46,0,0,1,0-3.52,8.36,8.36,0,0,1,3.28-2.07,22.13,22.13,0,0,1,6.12-1.37C32.17,22.35,33.29,22.3,34.41,22.23Z"/><path class="cls-2" d="M20.91,37.17a5.39,5.39,0,0,0,3.19,3,21.1,21.1,0,0,0,6.63,1.71,32,32,0,0,0,6.32.1,22.54,22.54,0,0,0,7.61-1.78,6.75,6.75,0,0,0,2.48-1.73,10.72,10.72,0,0,0,.75-1.16c0,1.14,0,2.38,0,3.62A2.91,2.91,0,0,1,46.72,43a10.57,10.57,0,0,1-3.86,2,26.4,26.4,0,0,1-6.76,1.14,30.14,30.14,0,0,1-9.15-.86,13.07,13.07,0,0,1-4.26-1.82,3.61,3.61,0,0,1-1.74-2.35,6.68,6.68,0,0,1,0-1C20.91,39.21,20.91,38.23,20.91,37.17Z"/><path class="cls-2" d="M21,30.57a4.66,4.66,0,0,0,2.44,2.67A17.26,17.26,0,0,0,29,35.05a32.18,32.18,0,0,0,8.86.3,23.18,23.18,0,0,0,6-1.33,8.07,8.07,0,0,0,3.41-2.14A5.91,5.91,0,0,0,48,30.63q0,.15,0,.31v.31c0,.91,0,1.82,0,2.73a3.05,3.05,0,0,1-1.18,2.45,10.57,10.57,0,0,1-3.92,2,27.29,27.29,0,0,1-7.74,1.16,29.62,29.62,0,0,1-8.08-.88,13.23,13.23,0,0,1-4.32-1.85,3.84,3.84,0,0,1-1.69-2.14A2.76,2.76,0,0,1,21,34.2C21,33,21,31.81,21,30.57Z"/><path class="cls-2" d="M21,43.76a4.66,4.66,0,0,0,2.45,2.67A17.27,17.27,0,0,0,29,48.26a32.18,32.18,0,0,0,8.76.3,23.31,23.31,0,0,0,6.06-1.34,8.05,8.05,0,0,0,3.39-2.12A9.63,9.63,0,0,0,48,43.93c0,.17,0,.43,0,.69,0,.85,0,1.71,0,2.56a3,3,0,0,1-1.18,2.45,10.54,10.54,0,0,1-3.92,2,28.27,28.27,0,0,1-8.85,1.16,28.68,28.68,0,0,1-6.94-.87,13.38,13.38,0,0,1-4.35-1.85A3.74,3.74,0,0,1,21,47.78a1,1,0,0,1,0-.18C21,46.34,21,45.08,21,43.76Z"/></svg>